# xmcd CD database file generated by OrangeCD 5.0
#
# Track frame offsets:
#	150
#	2946
#	25922
#	43975
#	66645
#	82331
#	98023
#	122194
#	143301
#	157884
#	175903
#	193197
#	213289
#	229422
#	247286
#	264114
#	272745
#	287890
#	302075
#	318115
#
# Disc length: 4530 seconds
#
# Revision: 0
# Processed by: cddbd v1.4PL0 Copyright (c) Steve Scherf et al.
# Submitted via: OrangeCD 5.0
#
DISCID=2811b014
DTITLE=Alan Jackson - Summer Country Concert Series at Nashville, TN.
DYEAR=1900
DGENRE=Country
TTITLE0=Intro
TTITLE1=I Dont Even Know Your Name
TTITLE2=Livin' On Love
TTITLE3=Don't Rock The Jukebox
TTITLE4=Summertime Blues
TTITLE5=Chasin' That Neon Rainbow
TTITLE6=Mercury Blues
TTITLE7=Gone Country
TTITLE8=Seven Ridges Grove
TTITLE9=Tall Tall Trees
TTITLE10=Here in The Real World
TTITLE11=Midnight In Montgomery
TTITLE12=She's Got The Rythm (I Got The Blues)
TTITLE13=I'll Try
TTITLE14=Dog River Blues
TTITLE15=Make A Livin Outta Lovin You
TTITLE16=Romance
TTITLE17=Dream?
TTITLE18=Mind Your Business
TTITLE19=Chattahoochie
EXTD=
EXTT0=
EXTT1=
EXTT2=
EXTT3=
EXTT4=
EXTT5=
EXTT6=
EXTT7=
EXTT8=
EXTT9=
EXTT10=
EXTT11=
EXTT12=
EXTT13=
EXTT14=
EXTT15=
EXTT16=
EXTT17=
EXTT18=
EXTT19=
PLAYORDER=
